<?xml version="1.0" standalone="no"?>
<!DOCTYPE svg PUBLIC "-//W3C//DTD SVG 20010904//EN"
 "http://www.w3.org/TR/2001/REC-SVG-20010904/DTD/svg10.dtd">
<svg version="1.0" xmlns="http://www.w3.org/2000/svg"
 width="260.000000pt" height="260.000000pt" viewBox="0 0 260.000000 260.000000"
 preserveAspectRatio="xMidYMid meet">
<metadata>
Created by potrace 1.14, written by Peter Selinger 2001-2017
</metadata>
<g transform="translate(0.000000,260.000000) scale(0.100000,-0.100000)"
fill="#000000" stroke="none">
<path d="M664 2036 c-251 -65 -334 -131 -447 -355 -76 -151 -82 -189 -44 -261
27 -52 47 -63 47 -25 0 65 52 117 136 136 47 11 57 10 70 -3 14 -14 6 -40 -92
-264 -99 -227 -108 -255 -109 -311 0 -75 22 -111 82 -132 37 -13 43 -13 79 6
34 17 104 96 139 158 8 13 10 0 7 -53 -4 -61 -1 -73 17 -91 31 -31 91 -28 130
5 44 37 40 53 -11 51 -43 -2 -43 -2 -46 36 -4 47 26 156 89 326 28 73 48 139
45 147 -7 17 -60 18 -73 2 -6 -7 -45 -91 -89 -187 -103 -229 -179 -331 -248
-331 -36 0 -50 37 -36 91 6 22 47 123 92 227 127 296 135 332 72 348 -41 10
-141 -4 -185 -26 -34 -18 -69 -58 -83 -95 -7 -20 -19 6 -23 52 -4 41 0 56 29
103 18 30 46 80 61 111 34 70 128 161 199 194 79 36 298 84 298 65 0 -5 22
-16 49 -25 52 -17 171 -89 171 -103 0 -4 -5 -13 -11 -19 -8 -8 4 -28 40 -74
28 -35 61 -83 72 -107 18 -37 25 -43 48 -40 51 6 37 61 -42 168 -30 39 -41 63
-39 85 1 25 -6 36 -46 68 -26 21 -73 50 -104 65 -34 16 -58 33 -58 43 0 45
-52 49 -186 15z"/>
<path d="M2034 1761 c-209 -37 -388 -70 -397 -74 -9 -3 -27 -27 -39 -52 -12
-25 -29 -47 -37 -49 -9 -3 -101 -21 -206 -41 -104 -19 -199 -39 -211 -44 -14
-6 -30 -34 -48 -81 -30 -82 -33 -118 -10 -127 27 -10 46 10 73 77 l26 64 210
41 c116 22 216 44 223 48 7 5 22 27 33 50 12 23 22 43 23 44 6 7 718 124 724
119 9 -10 -59 -276 -114 -443 -25 -76 -75 -198 -111 -272 -84 -174 -132 -225
-283 -298 -58 -28 -151 -66 -207 -83 -99 -30 -103 -33 -103 -60 0 -39 22 -44
105 -21 189 53 374 154 448 246 83 104 172 299 249 545 44 143 110 419 106
449 -3 22 -8 26 -38 28 -19 0 -206 -29 -416 -66z"/>
<path d="M492 1753 c-18 -9 -37 -24 -43 -34 -8 -17 -6 -19 21 -19 36 0 77 19
104 49 19 21 19 21 -15 21 -19 0 -49 -8 -67 -17z"/>
<path d="M886 1442 c-3 -5 -10 -37 -15 -73 -11 -68 -26 -122 -85 -312 -40
-130 -44 -171 -20 -205 30 -43 134 -13 134 38 0 17 -4 18 -26 10 -60 -23 -57
8 22 253 61 189 74 258 54 282 -13 16 -55 21 -64 7z"/>
<path d="M2108 1298 c5 -20 24 -19 35 2 4 9 6 4 3 -13 -2 -19 0 -25 6 -19 18
18 4 45 -23 46 -20 1 -25 -2 -21 -16z"/>
<path d="M1884 1230 c-39 -25 -59 -69 -50 -112 3 -17 24 -55 46 -85 50 -65 56
-79 40 -98 -25 -31 -80 -12 -80 27 0 27 -27 33 -50 13 -40 -36 -15 -88 48
-101 49 -10 99 4 137 38 50 43 48 86 -5 153 -68 85 -75 128 -23 141 36 9 57
-7 61 -45 2 -17 9 -32 15 -32 64 -7 91 60 41 100 -37 29 -136 29 -180 1z"/>
<path d="M1578 1211 c-82 -52 -128 -133 -128 -227 0 -51 3 -59 35 -91 35 -35
36 -36 105 -31 88 7 134 31 138 76 4 37 -2 39 -43 12 -37 -25 -97 -42 -118
-34 -8 3 -21 19 -28 36 -15 36 -7 43 57 52 100 13 174 78 174 150 0 60 -29 86
-96 86 -38 0 -61 -7 -96 -29z m112 -54 c0 -24 -9 -42 -32 -65 -27 -25 -93 -62
-112 -62 -12 0 28 90 55 123 22 27 38 37 60 37 26 0 29 -3 29 -33z"/>
<path d="M1263 1211 c-51 -24 -78 -69 -69 -116 4 -19 27 -59 51 -91 47 -59 54
-81 33 -102 -26 -26 -78 2 -78 42 0 27 -42 16 -59 -16 -15 -25 -14 -29 8 -52
43 -46 154 -33 206 23 33 38 25 82 -28 149 -67 86 -64 132 8 132 27 0 48 -30
39 -54 -8 -22 21 -31 52 -18 19 9 24 19 24 47 0 29 -6 39 -32 55 -41 25 -100
25 -155 1z"/>
<path d="M1030 1213 c-25 -10 -30 -27 -13 -45 15 -17 13 -26 -25 -128 -45
-119 -51 -160 -26 -184 24 -25 86 -20 112 7 32 34 29 50 -8 42 -22 -5 -32 -3
-36 8 -3 8 15 67 40 131 49 123 56 160 30 170 -19 7 -53 7 -74 -1z"/>
</g>
</svg>
